# xmcd
#
# Track frame offsets:
#	150
#	16160
#	29137
#	39569
#	52256
#	69179
#	85258
#	96521
#	115619
#	129719
#	141430
#	154864
#	167272
#	180692
#	194846
#	213028
#	227838
#	243353
#	258247
#	270644
#	285735
#	301119
#	316886
#	329356
#	342996
#
# Disc length: 4762 seconds
#
# Revision: 0
# Processed by: cddbd v1.5PL3 Copyright (c) Steve Scherf et al.
# Submitted via: dBpowerAMP V4.0
#
DISCID=6c129819
DTITLE=Ramon Ayala y los Bravos del Norte - Ramon Ayala 100 Exitos d(2)
DYEAR=2000
DGENRE=Norteña
TTITLE0=Me puso el dedo
TTITLE1=Gaviota
TTITLE2=No porque seas tu
TTITLE3=Llegaste tu
TTITLE4=Puño de tierra
TTITLE5=Rinconcito en el cielo
TTITLE6=Moñito de color dorado
TTITLE7=Entierrenme cantando
TTITLE8=Vestida de color de rosa
TTITLE9=Te traigo estas flores
TTITLE10=La mexicanita
TTITLE11=Mis penas
TTITLE12=Hay unos ojos
TTITLE13=Capullito de rosa
TTITLE14=Ya lo pagaras con dios
TTITLE15=Mi negra suerte
TTITLE16=Ojitos soñadores
TTITLE17=La nueva mujer casada
TTITLE18=Hay que pegarle a la mujer
TTITLE19=Corrido de chito cano
TTITLE20=Dos monedas
TTITLE21=Enseñame a olvidar
TTITLE22=Bonita finca de adobe
TTITLE23=Que casualidad
TTITLE24=Chaparra  de mi amor
EXTD=
EXTT0=
EXTT1=
EXTT2=
EXTT3=
EXTT4=
EXTT5=
EXTT6=
EXTT7=
EXTT8=
EXTT9=
EXTT10=
EXTT11=
EXTT12=
EXTT13=
EXTT14=
EXTT15=
EXTT16=
EXTT17=
EXTT18=
EXTT19=
EXTT20=
EXTT21=
EXTT22=
EXTT23=
EXTT24=
PLAYORDER=
